<svg class="h-8 h-6" viewBox="0 0 204 37" xmlns="http://www.w3.org/2000/svg">
  <defs>
    <radialGradient cx="-4.619%" cy="6.646%" fx="-4.619%" fy="6.646%" r="101.342%" gradientTransform="matrix(.8299 .53351 -.5579 .79363 .03 .038)" id="a">
      <stop stop-color="#00FFC4" offset="0%"></stop>
      <stop stop-color="#00E1FF" offset="100%"></stop>
    </radialGradient>
  </defs>
  <g fill-rule="nonzero" fill="none">
    <path d="M30.343 9.99a14.757 14.757 0 0 1 .046 20.972 18.383 18.383 0 0 1-13.019 5.365A18.382 18.382 0 0 1 3.272 29.79c7.209 5.955 17.945 5.581 24.713-1.118a11.477 11.477 0 0 0 0-16.345c-4.56-4.514-11.953-4.514-16.513 0a4.918 4.918 0 0 0 0 7.006 5.04 5.04 0 0 0 7.077 0 1.68 1.68 0 0 1 2.359 0 1.639 1.639 0 0 1 0 2.333 8.4 8.4 0 0 1-11.794 0 8.198 8.198 0 0 1 0-11.674c5.861-5.805 15.366-5.805 21.229 0ZM17.37 0a18.38 18.38 0 0 1 14.097 6.538C24.257.583 13.52.958 6.756 7.653v.002a11.477 11.477 0 0 0 0 16.346c4.558 4.515 11.95 4.515 16.51 0a4.918 4.918 0 0 0 0-7.005 5.04 5.04 0 0 0-7.077 0 1.68 1.68 0 0 1-2.358 0 1.639 1.639 0 0 1 0-2.334 8.4 8.4 0 0 1 11.794 0 8.198 8.198 0 0 1 0 11.674c-5.862 5.805-15.367 5.805-21.23 0a14.756 14.756 0 0 1-.02-20.994A18.383 18.383 0 0 1 17.37 0Z" fill="url(#a)"></path>
    <text x="50" y="30" font-family="Georgia, sans-serif" font-size="30" fill="currentColor">MontFlow</text>
  </g>
</svg>